<?xml version="1.0" encoding="iso-8859-1"?>
<!-- Generator: Adobe Illustrator 16.0.0, SVG Export Plug-In . SVG Version: 6.00 Build 0)  -->
<!DOCTYPE svg PUBLIC "-//W3C//DTD SVG 1.1//EN" "http://www.w3.org/Graphics/SVG/1.1/DTD/svg11.dtd">
<svg xmlns="http://www.w3.org/2000/svg" xmlns:xlink="http://www.w3.org/1999/xlink" version="1.1" id="Capa_1" x="0px" y="0px" width="512px" height="512px" viewBox="0 0 612.002 612.002" style="enable-background:new 0 0 612.002 612.002;" xml:space="preserve">
<g>
	<g>
		<path d="M4.13,243.03c7.581,12.395,22.25,15.205,35.625,15.205c2.65,0,5.239-0.117,7.723-0.283    c-15.63,37.437-24.086,77.505-24.086,115.231c0,49.899,12.265,86.368,37.498,111.489c36.777,36.617,95.508,43.644,165.099,44.783    c1.843,0.857,3.778,1.664,5.825,2.429c21.331,7.944,49.486,9.018,74.219,9.018c24.734,0,52.888-1.073,74.219-9.018    c2.047-0.765,3.982-1.571,5.818-2.429c69.591-1.14,128.322-8.172,165.099-44.789c25.233-25.122,37.498-61.591,37.498-111.489    c0-37.727-8.449-77.789-24.08-115.225c15.015,1.004,34.22-0.105,43.286-14.934c12.406-20.29-5.19-48.235-25.566-80.599    c-11.568-18.373-23.525-37.375-28.247-52.494C548.543,92.243,535.384,79.978,516,74.474c-24.395-6.928-53.202-1.892-73.073,3.55    c-18.613,5.097-36.284,12.542-47.883,19.969c-28.826-9.905-58.769-14.922-89.043-14.922c-30.281,0-60.216,5.017-89.049,14.922    c-11.593-7.427-29.27-14.873-47.883-19.969c-19.871-5.442-48.678-10.478-73.073-3.55c-19.377,5.504-32.536,17.769-38.059,35.458    c-4.715,15.119-16.678,34.121-28.247,52.494C9.32,194.789-8.276,222.74,4.13,243.03z M103.934,102.412    c13.806-3.92,34.755-2.601,57.468,3.624c20.746,5.683,37.695,13.954,43.723,19.187l6.471,5.621l12.216-4.48    c26.946-9.584,53.831-14.244,82.189-14.244c28.352,0,55.236,4.659,82.183,14.244l12.222,4.48l6.472-5.621    c6.028-5.233,22.978-13.504,43.724-19.187c22.718-6.225,43.661-7.544,57.467-3.624c13.012,3.692,16.66,10.996,18.269,16.167    c5.843,18.737,18.829,39.372,31.391,59.323c7.704,12.241,14.982,23.803,19.852,33.738c4.919,10.034,5.399,14.533,5.368,16.05    c-1.497,0.678-6.489,2.219-19.278,1.079c-6.484-0.58-13.135-1.615-19.785-3.069l-0.721-0.161    c-66.466-14.878-116.562-68.672-117.049-69.203l-10.7,9.806l-10.705,9.806c1.824,1.991,37.115,40.043,90.016,63.754    c11.07,4.961,22.903,9.294,35.372,12.536c19.076,38.571,29.535,81.271,29.535,120.945c0,41.782-9.467,71.521-28.949,90.916    c-24.716,24.61-65.715,32.771-115.626,35.372c1.732-4.808,2.657-9.627,3.045-14.207l0.203,0.013    c0.13-2.102,2.774-52.223-32.308-116.883c-7.631-14.059-11.106-27.261-10.423-39.451c7.229,5.836,16.672,9.27,26.965,9.27h0.006    c3.428,0,6.879-0.389,10.256-1.159c22.953-5.227,37.689-26.749,32.852-47.976c-4.05-17.763-20.549-30.17-40.13-30.17    c-3.427,0-6.879,0.388-10.256,1.159c-6.928,1.578-13.104,4.653-18.219,8.746l-0.068-0.093    c-1.491,1.079-14.811,11.082-23.402,30.035c-7.976,17.59-13.251,46.355,6.896,83.49c2.971,5.473,5.628,10.816,8.013,16    c-18.743-12.062-40.32-18.552-62.447-18.552c-22.01,0-43.477,6.422-62.146,18.36c2.724-5.929,5.43-11.235,7.908-15.803    c20.148-37.141,14.872-65.898,6.903-83.49c-8.592-18.952-21.911-28.956-23.402-30.034l-0.068,0.092    c-5.122-4.092-11.292-7.162-18.219-8.746c-3.378-0.771-6.829-1.159-10.256-1.159c-19.581,0-36.086,12.407-40.129,30.169    c-4.833,21.227,9.904,42.744,32.851,47.977c3.377,0.77,6.829,1.158,10.256,1.158c10.299,0,19.748-3.439,26.977-9.275    c0.685,12.185-2.798,25.387-10.435,39.458c-24.111,44.438-30.404,82.016-31.938,101.85c-0.407,3.155-0.61,6.305-0.61,9.448    c0,6.127,0.832,12.968,3.285,19.778c-49.905-2.601-90.904-10.761-115.625-35.371c-19.477-19.396-28.943-49.135-28.943-90.917    c0-39.667,10.453-82.368,29.529-120.944c12.462-3.242,24.302-7.575,35.372-12.536c52.9-23.711,88.192-61.764,90.016-63.754    l-10.693-9.806l-10.712-9.818c-0.499,0.542-50.595,54.33-117.061,69.215l-0.025,0.006v-0.006    c-6.903,1.541-13.806,2.632-20.537,3.229c-12.789,1.14-17.781-0.407-19.279-1.079c-0.031-1.516,0.456-6.015,5.368-16.049    c4.869-9.936,12.148-21.498,19.853-33.738c12.561-19.951,25.547-40.58,31.39-59.323    C87.274,113.408,90.923,106.104,103.934,102.412z M306.026,511.871c-39.945,0-61.499-4.086-72.599-11.347    c-6.928-4.536-9.788-10.305-10.49-17.097c-0.025-0.679-0.129-4.253,0.29-10.151c2.028-14.047,10.478-28.925,23.482-40.888    c16.574-15.255,37.64-23.662,59.317-23.662c21.676,0,42.743,8.401,59.316,23.662c15.002,13.806,23.957,31.488,23.957,47.304    c0,8.425-2.508,15.488-10.675,20.832C367.524,507.785,345.971,511.871,306.026,511.871z M401.706,288.38    c1.27-0.29,2.546-0.438,3.809-0.438c5.85,0,10.817,3.193,11.822,7.581c1.257,5.516-3.778,11.569-10.99,13.215    c-1.263,0.29-2.545,0.432-3.809,0.432l0,0c-5.849,0-10.816-3.187-11.821-7.582C389.46,296.072,394.495,290.02,401.706,288.38z     M221.544,301.588c-0.999,4.395-5.972,7.582-11.821,7.582c-1.257,0-2.539-0.148-3.809-0.432    c-7.211-1.646-12.247-7.692-10.989-13.215c0.999-4.395,5.972-7.581,11.821-7.581c1.257,0,2.54,0.148,3.809,0.438    C217.766,290.02,222.801,296.072,221.544,301.588z" fill="#00897b"/>
		<path d="M247.251,490.114c0,0,51.52,2.509,48.192-28.376C292.115,430.859,241.378,439.981,247.251,490.114z" fill="#00897b"/>
		<path d="M316.559,461.738c-3.328,30.879,48.191,28.376,48.191,28.376C370.618,439.981,319.881,430.859,316.559,461.738z" fill="#00897b"/>
	</g>
</g>
<g>
</g>
<g>
</g>
<g>
</g>
<g>
</g>
<g>
</g>
<g>
</g>
<g>
</g>
<g>
</g>
<g>
</g>
<g>
</g>
<g>
</g>
<g>
</g>
<g>
</g>
<g>
</g>
<g>
</g>
</svg>
